<?xml version="1.0" standalone="no"?>
<!DOCTYPE svg PUBLIC "-//W3C//DTD SVG 20010904//EN"
 "http://www.w3.org/TR/2001/REC-SVG-20010904/DTD/svg10.dtd">
<svg version="1.0" xmlns="http://www.w3.org/2000/svg"
 width="512.000000pt" height="512.000000pt" viewBox="0 0 512.000000 512.000000"
 preserveAspectRatio="xMidYMid meet">
<metadata>
Created by potrace 1.14, written by Peter Selinger 2001-2017
</metadata>
<g transform="translate(0.000000,512.000000) scale(0.100000,-0.100000)"
fill="#000000" stroke="none">
<path d="M2303 5104 c-136 -17 -236 -39 -363 -81 -120 -40 -150 -61 -150 -110
0 -18 -4 -33 -8 -33 -5 0 -45 -24 -89 -53 -62 -41 -86 -51 -98 -44 -27 15 -48
15 -76 1 -26 -13 -108 -113 -134 -164 -20 -38 -45 -131 -49 -181 -2 -24 -4
-47 -5 -51 -1 -3 -26 -18 -56 -32 -290 -132 -456 -469 -380 -769 9 -34 54
-145 101 -245 47 -101 84 -185 82 -187 -2 -1 -22 -12 -46 -24 -132 -67 -204
-194 -198 -349 10 -256 219 -451 483 -452 l63 0 31 -62 c17 -35 54 -96 80
-136 27 -40 49 -73 49 -75 0 -1 -197 -2 -438 -3 l-438 0 -46 -27 c-33 -19 -53
-40 -68 -73 -20 -41 -22 -55 -16 -142 4 -53 9 -98 11 -102 1 -3 6 -40 10 -83
3 -43 8 -86 10 -95 1 -9 6 -57 10 -107 4 -49 8 -92 10 -95 2 -3 6 -43 10 -90
4 -47 8 -92 10 -100 2 -8 6 -52 10 -97 l7 -82 -29 -15 c-31 -16 -122 -103
-165 -157 -40 -49 -104 -175 -122 -239 -8 -30 -27 -118 -40 -195 -14 -77 -28
-153 -31 -170 -3 -16 -8 -55 -11 -85 -5 -48 -4 -57 15 -74 42 -38 94 -31 117
17 l15 32 184 0 184 -1 29 -27 c16 -15 44 -32 63 -37 21 -6 654 -10 1737 -10
1839 0 1732 -3 1793 52 26 23 31 23 205 23 l178 -1 16 -29 c11 -21 28 -33 53
-39 32 -8 40 -6 62 14 28 26 31 56 15 141 -9 45 -37 201 -56 313 -29 170 -176
396 -307 474 l-29 17 7 84 c4 46 8 93 10 105 20 123 13 165 -30 184 -21 10
-24 16 -19 49 5 40 12 115 13 146 1 9 9 17 19 17 36 0 61 29 67 78 3 26 8 61
10 77 3 17 7 69 11 117 6 77 4 92 -16 132 -15 33 -35 54 -68 73 l-45 27 -439
0 c-241 0 -438 1 -438 3 0 1 22 35 48 75 27 40 56 88 65 106 50 97 39 89 130
95 45 3 91 8 102 11 59 15 88 27 138 60 102 65 167 149 203 262 60 187 -9 373
-168 459 -29 15 -55 29 -57 31 -2 2 4 20 14 41 10 21 45 93 77 161 89 186 110
258 111 372 1 268 -157 516 -398 626 -30 14 -55 31 -56 37 0 7 -2 19 -3 27 -2
8 -6 38 -10 67 -26 199 -229 398 -524 511 -118 46 -261 82 -422 107 -83 13
-422 12 -527 -1z"/>
</g>
</svg>
