<?xml version="1.0" standalone="no"?>
<!DOCTYPE svg PUBLIC "-//W3C//DTD SVG 20010904//EN"
 "http://www.w3.org/TR/2001/REC-SVG-20010904/DTD/svg10.dtd">
<svg version="1.0" xmlns="http://www.w3.org/2000/svg"
 width="512.000000pt" height="512.000000pt" viewBox="0 0 512.000000 512.000000"
 preserveAspectRatio="xMidYMid meet">
<metadata>
Created by potrace 1.14, written by Peter Selinger 2001-2017
</metadata>
<g transform="translate(0.000000,512.000000) scale(0.100000,-0.100000)"
fill="#000000" stroke="none">
<path d="M2350 5109 c-219 -23 -485 -94 -542 -146 -11 -10 -18 -31 -18 -53 0
-32 -4 -39 -30 -50 -17 -7 -56 -31 -87 -52 -47 -33 -60 -38 -75 -29 -10 6 -32
11 -49 11 -73 0 -195 -194 -207 -331 l-7 -74 -80 -40 c-108 -54 -245 -188
-298 -292 -51 -99 -77 -205 -77 -317 0 -124 17 -181 117 -394 47 -100 84 -184
82 -186 -2 -1 -28 -16 -57 -31 -138 -74 -210 -224 -185 -386 37 -238 242 -409
489 -409 l54 0 26 -52 c15 -29 51 -90 80 -136 30 -45 54 -85 54 -87 0 -3 -198
-5 -440 -5 -366 0 -446 -2 -469 -14 -40 -21 -88 -79 -96 -117 -4 -18 13 -220
41 -490 l48 -459 -25 -17 c-13 -9 -60 -52 -105 -97 -87 -87 -142 -174 -179
-284 -22 -64 -95 -452 -95 -505 0 -30 42 -67 76 -67 32 0 61 31 72 77 5 21 26
128 45 237 31 174 41 210 75 280 23 45 65 108 95 141 l54 60 7 -40 c3 -22 20
-172 36 -334 18 -169 37 -305 45 -320 20 -40 68 -80 106 -91 46 -14 3412 -14
3458 0 38 11 86 51 106 91 8 15 27 151 45 320 16 162 33 311 36 333 l6 38 42
-41 c101 -99 144 -207 190 -471 20 -113 43 -220 51 -237 17 -37 54 -51 91 -34
50 22 51 43 10 279 -42 237 -65 318 -119 414 -55 97 -166 218 -234 257 -16 8
-16 19 -1 166 18 171 15 194 -29 214 -35 16 -49 14 -78 -12 -25 -22 -26 -26
-85 -591 -33 -312 -63 -572 -66 -577 -3 -5 -715 -9 -1695 -9 -1343 0 -1691 3
-1694 13 -9 23 -185 1719 -179 1728 3 5 797 9 1875 9 1492 0 1871 -3 1874 -13
3 -6 -1 -70 -9 -141 -8 -71 -12 -136 -9 -145 11 -31 37 -51 65 -51 69 0 79 23
98 217 14 141 9 172 -32 219 -58 66 -42 64 -528 64 -242 0 -440 2 -440 5 0 2
24 42 54 87 29 46 65 107 80 136 l26 52 54 0 c241 0 445 166 487 395 30 163
-44 325 -183 399 -29 16 -55 31 -57 32 -2 2 35 86 82 186 100 213 117 270 117
394 0 259 -140 485 -378 609 l-77 41 -7 73 c-37 416 -712 723 -1428 650z m515
-169 c283 -46 504 -140 640 -274 80 -79 114 -146 124 -245 8 -79 25 -124 57
-152 11 -9 55 -34 99 -55 224 -109 351 -367 291 -592 -24 -90 -198 -451 -218
-452 -19 0 -19 2 -38 163 -20 169 -76 379 -132 491 -117 233 -385 319 -646
206 -81 -35 -101 -92 -49 -140 28 -26 51 -25 128 7 52 22 80 27 149 27 73 1
92 -3 135 -26 59 -31 120 -89 145 -138 26 -52 75 -211 101 -330 19 -89 23
-143 27 -358 6 -357 -17 -548 -84 -700 -28 -63 -136 -230 -183 -285 -28 -31
-39 -37 -74 -37 -70 0 -118 32 -202 135 -91 113 -133 150 -199 181 -103 48
-192 41 -299 -22 -32 -19 -65 -34 -72 -34 -8 0 -40 15 -71 34 -104 63 -195 70
-299 22 -67 -30 -108 -68 -200 -181 -85 -105 -132 -135 -206 -135 -53 0 -65
11 -154 135 -155 218 -195 386 -195 824 0 245 8 327 45 486 60 256 112 346
235 404 46 22 69 26 135 25 70 0 92 -5 180 -42 164 -68 345 -102 540 -102 104
0 161 13 175 40 17 31 12 75 -11 96 -18 17 -39 19 -163 20 -209 2 -341 28
-511 100 -79 33 -102 38 -190 42 -84 3 -111 0 -165 -18 -221 -74 -332 -255
-400 -655 -11 -65 -22 -120 -24 -122 -5 -6 -73 149 -90 206 -9 31 -16 90 -16
135 1 249 139 461 375 572 40 20 81 44 90 54 12 13 20 47 26 101 12 118 50
193 149 289 143 140 361 242 636 300 118 24 262 24 409 0z m-1572 -2097 c5
-158 14 -240 33 -337 l6 -29 -57 6 c-240 25 -384 319 -230 472 48 48 87 63
176 64 l66 1 6 -177z m2701 165 c23 -7 59 -30 82 -53 153 -153 9 -447 -231
-472 l-57 -6 6 29 c19 97 28 179 33 337 l6 177 60 0 c33 0 78 -6 101 -12z
m-1566 -803 c105 -64 170 -64 272 -1 65 40 128 48 179 21 28 -14 151 -143 151
-157 0 -5 -190 -8 -421 -8 l-421 0 38 48 c94 116 109 132 127 132 10 0 44 -16
75 -35z"/>
<path d="M1835 3355 c-14 -13 -25 -36 -25 -50 0 -14 11 -37 25 -50 l24 -25
236 0 236 0 24 25 c14 13 25 36 25 50 0 14 -11 37 -25 50 l-24 25 -236 0 -236
0 -24 -25z"/>
<path d="M2755 3355 c-14 -13 -25 -36 -25 -50 0 -14 11 -37 25 -50 l24 -25
236 0 236 0 24 25 c14 13 25 36 25 50 0 14 -11 37 -25 50 l-24 25 -236 0 -236
0 -24 -25z"/>
<path d="M2055 3105 c-23 -22 -25 -31 -25 -125 0 -94 2 -103 25 -125 13 -14
36 -25 50 -25 14 0 37 11 50 25 23 22 25 31 25 125 0 94 -2 103 -25 125 -13
14 -36 25 -50 25 -14 0 -37 -11 -50 -25z"/>
<path d="M2965 3105 c-23 -22 -25 -31 -25 -125 0 -94 2 -103 25 -125 13 -14
36 -25 50 -25 14 0 37 11 50 25 23 22 25 31 25 125 0 94 -2 103 -25 125 -13
14 -36 25 -50 25 -14 0 -37 -11 -50 -25z"/>
<path d="M2375 2665 c-79 -78 40 -163 214 -153 134 8 209 59 185 126 -5 14
-21 33 -36 42 -25 13 -32 13 -77 -3 -60 -21 -137 -22 -184 -2 -51 21 -74 19
-102 -10z"/>
<path d="M2478 1560 c-124 -22 -227 -78 -315 -172 -114 -122 -167 -311 -133
-468 16 -71 51 -150 71 -160 30 -16 78 -11 99 10 26 26 25 61 -1 130 -31 80
-24 213 15 291 37 75 112 151 183 185 53 26 68 29 163 29 96 0 110 -3 165 -29
154 -76 241 -241 214 -408 -21 -130 -100 -231 -225 -290 -76 -36 -171 -42
-266 -19 -51 13 -60 12 -82 -3 -29 -19 -41 -54 -32 -92 10 -39 81 -66 191 -72
169 -9 301 41 417 159 243 246 198 639 -96 831 -102 66 -255 98 -368 78z"/>
</g>
</svg>
